control3min_grf.mot
version=1
nRows=30
nColumns 19
inDegrees=yes
endheader
time	1_ground_force_vx	1_ground_force_vy	1_ground_force_vz	1_ground_force_px	1_ground_force_py	1_ground_force_pz	1_ground_torque_x	1_ground_torque_y	1_ground_torque_z	2_ground_force_vx	2_ground_force_vy	2_ground_force_vz	2_ground_force_px	2_ground_force_py	2_ground_force_pz	2_ground_torque_x	2_ground_torque_y	2_ground_torque_z
            1.252500	          -55.777008	         1319.741010	         -168.597514	           -0.163164	            0.006062	           -0.364757	           -0.154188	            3.648251	           -0.466066	          -85.236606	         1124.348713	          145.396628	           -0.141814	            0.006036	           -0.715886	            0.075203	           -0.991998	           -0.128282
            1.253000	          -54.904587	         1319.558645	         -168.050162	           -0.163197	            0.006062	           -0.364757	           -0.158385	            3.806564	           -0.484778	          -84.205186	         1124.167853	          145.536309	           -0.141969	            0.006036	           -0.715835	            0.073158	           -0.976680	           -0.126442
            1.253500	          -54.260623	         1318.293475	         -167.277635	           -0.163228	            0.006062	           -0.364825	           -0.161134	            3.914842	           -0.496752	          -83.223454	         1124.724893	          145.256309	           -0.142041	            0.006035	           -0.715841	            0.075827	           -1.024766	           -0.132347
            1.254000	          -53.296262	         1319.191874	         -166.542464	           -0.163473	            0.006062	           -0.364767	           -0.158863	            3.932183	           -0.496422	          -82.331273	         1124.175289	          145.347800	           -0.142103	            0.006035	           -0.715895	            0.082363	           -1.124606	           -0.145404
            1.254500	          -52.469351	         1319.008666	         -165.857428	           -0.163724	            0.006062	           -0.364913	           -0.156347	            3.930362	           -0.494219	          -81.677475	         1124.730977	          145.114874	           -0.142193	            0.006035	           -0.715817	            0.084498	           -1.163575	           -0.150127
            1.255000	          -51.916131	         1320.084848	         -164.524337	           -0.164128	            0.006062	           -0.364937	           -0.158154	            4.021424	           -0.501197	          -80.647507	         1124.919281	          144.974286	           -0.142415	            0.006035	           -0.716015	            0.090266	           -1.259081	           -0.162264
            1.255500	          -50.996473	         1319.719714	         -163.427617	           -0.164181	            0.006063	           -0.365019	           -0.161342	            4.175323	           -0.517052	          -79.381259	         1124.556023	          144.878593	           -0.142498	            0.006034	           -0.715908	            0.092225	           -1.306508	           -0.168320
            1.256000	          -49.755418	         1317.912124	         -162.246173	           -0.164072	            0.006063	           -0.365049	           -0.165477	            4.383136	           -0.539601	          -78.675985	         1123.823002	          144.594082	           -0.142554	            0.006034	           -0.715863	            0.093387	           -1.333961	           -0.171631
            1.256500	          -48.331289	         1315.204241	         -161.252456	           -0.163786	            0.006063	           -0.365100	           -0.166174	            4.521965	           -0.554422	          -77.741117	         1124.379796	          144.267165	           -0.142613	            0.006034	           -0.715938	            0.093703	           -1.355234	           -0.173888
            1.257000	          -47.872699	         1314.302970	         -161.257459	           -0.163677	            0.006063	           -0.365043	           -0.160590	            4.408857	           -0.540942	          -77.222591	         1123.462186	          143.935172	           -0.142658	            0.006034	           -0.716009	            0.092352	           -1.343572	           -0.172135
            1.257500	          -48.147049	         1312.319435	         -161.127707	           -0.163575	            0.006063	           -0.364970	           -0.152700	            4.162069	           -0.511022	          -76.144594	         1123.283670	          143.464760	           -0.142747	            0.006033	           -0.715900	            0.099627	           -1.469689	           -0.187707
            1.258000	          -48.971721	         1311.417327	         -160.991983	           -0.163715	            0.006063	           -0.365024	           -0.148682	            3.981567	           -0.488784	          -75.249178	         1121.814261	          143.318349	           -0.142686	            0.006033	           -0.715825	            0.104898	           -1.563812	           -0.199786
            1.258500	          -48.740467	         1309.611705	         -160.312424	           -0.163765	            0.006064	           -0.365211	           -0.150530	            4.044611	           -0.495110	          -74.404082	         1121.266329	          142.893658	           -0.142732	            0.006033	           -0.715913	            0.110570	           -1.666279	           -0.212350
            1.259000	          -47.865156	         1308.523262	         -158.668425	           -0.163632	            0.006064	           -0.365224	           -0.156523	            4.278983	           -0.518859	          -73.651990	         1120.533812	          142.515287	           -0.142720	            0.006033	           -0.715935	            0.111934	           -1.702959	           -0.216591
            1.259500	          -46.485175	         1306.533165	         -156.937809	           -0.163472	            0.006064	           -0.365181	           -0.162411	            4.564807	           -0.548314	          -72.992298	         1119.432888	          142.041799	           -0.142681	            0.006033	           -0.715869	            0.112006	           -1.717760	           -0.217962
            1.260000	          -45.380842	         1305.264742	         -155.386857	           -0.163634	            0.006063	           -0.365096	           -0.168068	            4.834063	           -0.575477	          -72.569407	         1119.066676	          141.852593	           -0.142856	            0.006033	           -0.715933	            0.110195	           -1.699280	           -0.215400
            1.260500	          -45.103311	         1302.917772	         -154.572159	           -0.163533	            0.006064	           -0.365208	           -0.166443	            4.808096	           -0.570410	          -71.769224	         1117.966838	          141.285175	           -0.142826	            0.006033	           -0.715947	            0.114499	           -1.783583	           -0.225404
            1.261000	          -45.653149	         1302.016110	         -154.528822	           -0.163546	            0.006064	           -0.365262	           -0.157811	            4.500727	           -0.534165	          -71.530444	         1116.679642	          140.998892	           -0.142788	            0.006033	           -0.715928	            0.115996	           -1.810840	           -0.228648
            1.261500	          -46.112108	         1300.575272	         -154.854848	           -0.163494	            0.006064	           -0.365234	           -0.155425	            4.383694	           -0.521951	          -70.776440	         1115.395311	          140.430837	           -0.142687	            0.006034	           -0.715937	            0.123467	           -1.945768	           -0.244977
            1.262000	          -46.706895	         1299.131459	         -154.492705	           -0.163554	            0.006064	           -0.365186	           -0.156925	            4.364808	           -0.519063	          -70.300729	         1113.372231	          140.188792	           -0.142646	            0.006033	           -0.715826	            0.120887	           -1.914520	           -0.241064
            1.262500	          -46.702611	         1296.240720	         -152.991847	           -0.163355	            0.006064	           -0.365300	           -0.164070	            4.553790	           -0.537472	          -69.779462	         1111.717145	          140.041852	           -0.142594	            0.006033	           -0.715751	            0.122233	           -1.947402	           -0.245312
            1.263000	          -45.506407	         1293.350212	         -151.493916	           -0.163240	            0.006065	           -0.365384	           -0.169428	            4.815372	           -0.564039	          -69.446519	         1110.247881	          139.285607	           -0.142539	            0.006034	           -0.715846	            0.124233	           -1.986125	           -0.249168
            1.263500	          -45.181535	         1291.541265	         -150.035053	           -0.163311	            0.006064	           -0.365303	           -0.173161	            4.949913	           -0.575019	          -69.205950	         1108.409876	          138.528087	           -0.142437	            0.006034	           -0.715902	            0.126945	           -2.033161	           -0.254103
            1.264000	          -44.491092	         1289.914773	         -149.034878	           -0.163260	            0.006064	           -0.365305	           -0.171353	            4.967977	           -0.573993	          -68.870077	         1106.201706	          138.426222	           -0.142388	            0.006034	           -0.715801	            0.129863	           -2.085872	           -0.261019
            1.264500	          -44.719360	         1287.209865	         -148.862495	           -0.163082	            0.006065	           -0.365395	           -0.164967	            4.748428	           -0.549143	          -68.395236	         1104.364379	          137.715538	           -0.142293	            0.006035	           -0.715853	            0.137111	           -2.213903	           -0.276076
            1.265000	          -45.360436	         1284.505515	         -148.780762	           -0.163053	            0.006065	           -0.365433	           -0.163565	            4.631794	           -0.536488	          -68.200718	         1102.340954	          137.285870	           -0.142189	            0.006035	           -0.715957	            0.141407	           -2.285582	           -0.284647
            1.265500	          -45.817400	         1281.439185	         -148.425918	           -0.162947	            0.006064	           -0.365216	           -0.164490	            4.600519	           -0.532867	          -67.958758	         1100.134043	          136.667812	           -0.142063	            0.006035	           -0.715858	            0.139610	           -2.260040	           -0.280761
            1.266000	          -45.768635	         1277.289501	         -147.572573	           -0.162648	            0.006064	           -0.365328	           -0.169051	            4.717802	           -0.545075	          -67.717299	         1098.110117	          136.425837	           -0.142043	            0.006036	           -0.715962	            0.143789	           -2.331689	           -0.289682
            1.266500	          -45.994641	         1274.040091	         -146.531213	           -0.162489	            0.006064	           -0.365340	           -0.171542	            4.751675	           -0.546505	          -67.708262	         1095.534201	          135.806596	           -0.141803	            0.006037	           -0.715979	            0.140945	           -2.280518	           -0.282702
            1.267000	          -45.624575	         1272.052158	         -145.348379	           -0.162410	            0.006064	           -0.365324	           -0.171849	            4.791301	           -0.547468	          -67.375237	         1094.064268	          135.238063	           -0.141839	            0.006037	           -0.716020	            0.148732	           -2.415169	           -0.298541
